<svg width="27" height="27" viewBox="0 0 27 27" fill="none" xmlns="http://www.w3.org/2000/svg">
<path d="M13.4996 0.424246C11.8025 0.362336 10.4882 1.53494 9.06509 2.27174C7.12948 3.41914 5.13628 4.47762 3.23921 5.6845C1.99837 6.69304 1.42826 8.31594 1.55857 9.88316C1.56579 12.6618 1.54417 15.4411 1.56948 18.2194C1.73016 19.9016 2.89665 21.3293 4.39768 22.0331C6.80732 23.416 9.20283 24.8247 11.6213 26.1915C13.1587 26.8926 14.9787 26.5977 16.3387 25.6493C18.7413 24.2537 21.1588 22.8828 23.5519 21.4717C24.9285 20.4916 25.582 18.7676 25.4408 17.1158C25.4335 14.3371 25.4552 11.5578 25.4298 8.77959C25.269 7.09746 24.1027 5.66947 22.6015 4.96605C20.1918 3.58335 17.7959 2.17561 15.3776 0.808627C14.7922 0.536728 14.142 0.426039 13.4997 0.424193L13.4996 0.424246ZM11.9864 7.42157H15.0134V19.5779H11.9864V7.42157V7.42157ZM15.7955 10.0675H18.821V19.5779H15.7955V10.0675ZM8.17789 15.0287H11.2043V19.5779H8.17789V15.0287V15.0287Z" fill="#AAAAAA"/>
</svg>
