<svg width="23" height="23" viewBox="0 0 23 23" fill="none" xmlns="http://www.w3.org/2000/svg">
<g clip-path="url(#clip0_2_32)">
<path fill-rule="evenodd" clip-rule="evenodd" d="M22.3215 4.27368C22.5216 4.35355 22.6932 4.49155 22.8142 4.66989C22.9351 4.84822 22.9998 5.05871 23 5.27418V17.7258C22.9998 17.9413 22.9351 18.1518 22.8142 18.3301C22.6932 18.5084 22.5216 18.6464 22.3215 18.7263L11.8996 22.8951C11.6426 22.9978 11.3559 22.9978 11.0989 22.8951L0.677062 18.7263C0.477205 18.6462 0.305908 18.5081 0.185237 18.3298C0.0645662 18.1515 5.01111e-05 17.9411 0 17.7258L0 5.27418C5.01111e-05 5.05887 0.0645662 4.84851 0.185237 4.67019C0.305908 4.49188 0.477205 4.35378 0.677062 4.27368L10.6993 0.264494L10.7051 0.263056L11.0989 0.104931C11.3564 0.00176601 11.6436 0.00176601 11.9011 0.104931L12.2949 0.263056L12.3007 0.264494L22.3215 4.27368ZM20.3464 5.03124L11.5 8.57037L2.65362 5.03124L1.4375 5.51856V6.09356L10.7812 9.83106V21.2189L11.5 21.5064L12.2188 21.2189V9.83249L21.5625 6.09499V5.51999L20.3464 5.03124Z" fill="#AAAAAA"/>
</g>
<defs>
<clipPath id="clip0_2_32">
<rect width="23" height="23" fill="white"/>
</clipPath>
</defs>
</svg>
