<svg width="14" height="14" viewBox="0 0 14 14" fill="none" xmlns="http://www.w3.org/2000/svg">
<path d="M8.06167 12.8333H5.93833C5.80529 12.8334 5.67624 12.7879 5.57258 12.7045C5.46892 12.6211 5.39689 12.5048 5.36842 12.3748L5.131 11.2758C4.81428 11.1371 4.51397 10.9635 4.23558 10.7584L3.164 11.0997C3.03716 11.1401 2.9003 11.136 2.77615 11.0879C2.652 11.0398 2.54803 10.9507 2.4815 10.8354L1.4175 8.99734C1.35167 8.88192 1.32696 8.74757 1.34741 8.61628C1.36786 8.48498 1.43226 8.36452 1.53008 8.27459L2.36133 7.51626C2.32353 7.17274 2.32353 6.82611 2.36133 6.48259L1.53008 5.72601C1.43212 5.63604 1.36763 5.51547 1.34718 5.38405C1.32672 5.25263 1.35152 5.11815 1.4175 5.00267L2.47917 3.16342C2.54569 3.04811 2.64967 2.95902 2.77382 2.91095C2.89797 2.86288 3.03483 2.85872 3.16167 2.89917L4.23325 3.24042C4.37558 3.13542 4.52375 3.03742 4.67658 2.94876C4.82417 2.86592 4.97583 2.79067 5.131 2.72359L5.369 1.62576C5.39733 1.49579 5.46923 1.37941 5.57278 1.29591C5.67633 1.21241 5.80531 1.16681 5.93833 1.16667H8.06167C8.19469 1.16681 8.32366 1.21241 8.42721 1.29591C8.53076 1.37941 8.60266 1.49579 8.631 1.62576L8.87133 2.72417C9.18764 2.86374 9.48787 3.03723 9.76675 3.24159L10.8389 2.90034C10.9657 2.86004 11.1024 2.86427 11.2264 2.91233C11.3505 2.96039 11.4543 3.0494 11.5208 3.16459L12.5825 5.00384C12.7178 5.24126 12.6712 5.54167 12.4699 5.72659L11.6387 6.48492C11.6765 6.82844 11.6765 7.17507 11.6387 7.51859L12.4699 8.27692C12.6712 8.46242 12.7178 8.76226 12.5825 8.99967L11.5208 10.8389C11.4543 10.9542 11.3503 11.0433 11.2262 11.0914C11.102 11.1395 10.9652 11.1436 10.8383 11.1032L9.76675 10.7619C9.48858 10.9669 9.18845 11.1402 8.87192 11.2788L8.631 12.3748C8.60255 12.5047 8.5306 12.6209 8.42706 12.7043C8.32352 12.7877 8.1946 12.8332 8.06167 12.8333V12.8333ZM6.99767 4.66667C6.37883 4.66667 5.78533 4.9125 5.34775 5.35009C4.91016 5.78767 4.66433 6.38117 4.66433 7.00001C4.66433 7.61884 4.91016 8.21234 5.34775 8.64992C5.78533 9.08751 6.37883 9.33334 6.99767 9.33334C7.6165 9.33334 8.21 9.08751 8.64758 8.64992C9.08517 8.21234 9.331 7.61884 9.331 7.00001C9.331 6.38117 9.08517 5.78767 8.64758 5.35009C8.21 4.9125 7.6165 4.66667 6.99767 4.66667V4.66667Z" fill="#AAAAAA"/>
</svg>
