<svg width="27" height="27" viewBox="0 0 27 27" fill="none" xmlns="http://www.w3.org/2000/svg">
<path d="M15.0851 2.82712C14.0686 2.41497 12.9314 2.41497 11.9149 2.82712L9.45113 3.82612L20.2421 8.02237L24.0379 6.5565C23.8823 6.42737 23.7078 6.32302 23.5204 6.24712L15.0851 2.82712V2.82712ZM24.75 8.08987L14.3438 12.1106V14.0377C15.222 13.2191 16.3193 12.6737 17.5021 12.4679C18.685 12.2621 19.9021 12.4049 21.0052 12.8788C22.1082 13.3527 23.0496 14.1373 23.7146 15.1369C24.3795 16.1365 24.7393 17.308 24.75 18.5085V8.091V8.08987ZM12.6562 16.7141C12.4693 17.3128 12.3744 17.9364 12.375 18.5636C12.375 19.2071 12.474 19.8292 12.6562 20.4131V24.399C12.4028 24.3473 12.1546 24.2723 11.9149 24.1751L3.47962 20.7551C3.11629 20.6079 2.80516 20.3557 2.58609 20.0306C2.36703 19.7055 2.25 19.3224 2.25 18.9304V8.091L12.6562 12.1117V16.7152V16.7141ZM2.96212 6.55537L13.5 10.629L17.9066 8.92575L7.17075 4.752L3.47962 6.24825C3.28837 6.32587 3.11512 6.4305 2.96212 6.55762V6.55537ZM22.689 21.4965C23.4246 20.4619 23.7446 19.1887 23.5857 17.9293C23.4268 16.6699 22.8006 15.5161 21.8311 14.6966C20.8616 13.8772 19.6196 13.4519 18.3513 13.505C17.083 13.558 15.8809 14.0857 14.9833 14.9833C14.0857 15.8809 13.558 17.083 13.505 18.3513C13.4519 19.6196 13.8772 20.8616 14.6967 21.8311C15.5161 22.8005 16.6699 23.4268 17.9293 23.5857C19.1887 23.7446 20.4619 23.4246 21.4965 22.689L24.435 25.6286C24.5122 25.7115 24.6054 25.778 24.7089 25.8241C24.8124 25.8702 24.9241 25.895 25.0374 25.897C25.1507 25.899 25.2632 25.8782 25.3683 25.8358C25.4734 25.7933 25.5688 25.7302 25.6489 25.65C25.729 25.5699 25.7922 25.4745 25.8346 25.3694C25.8771 25.2644 25.8979 25.1518 25.8959 25.0385C25.8939 24.9252 25.8691 24.8135 25.823 24.71C25.7769 24.6065 25.7104 24.5134 25.6275 24.4361L22.689 21.4965ZM21.9375 18.5636C21.9375 19.4587 21.5819 20.3172 20.949 20.9501C20.3161 21.583 19.4576 21.9386 18.5625 21.9386C17.6674 21.9386 16.8089 21.583 16.176 20.9501C15.5431 20.3172 15.1875 19.4587 15.1875 18.5636C15.1875 17.6685 15.5431 16.8101 16.176 16.1771C16.8089 15.5442 17.6674 15.1886 18.5625 15.1886C19.4576 15.1886 20.3161 15.5442 20.949 16.1771C21.5819 16.8101 21.9375 17.6685 21.9375 18.5636V18.5636Z" fill="#AAAAAA"/>
</svg>
