<svg width="27" height="27" viewBox="0 0 27 27" fill="none" xmlns="http://www.w3.org/2000/svg">
<path d="M6.46875 3.375C7.13969 3.3756 7.78295 3.64254 8.25716 4.11718C8.73138 4.59182 8.99775 5.23531 8.99775 5.90625V21.0937C9.00785 21.4324 8.94988 21.7695 8.82727 22.0853C8.70467 22.4011 8.51992 22.6891 8.28398 22.9322C8.04803 23.1753 7.7657 23.3685 7.4537 23.5005C7.1417 23.6325 6.80639 23.7005 6.46763 23.7005C6.12887 23.7005 5.79356 23.6325 5.48156 23.5005C5.16956 23.3685 4.88722 23.1753 4.65128 22.9322C4.41534 22.6891 4.23059 22.4011 4.10798 22.0853C3.98538 21.7695 3.9274 21.4324 3.9375 21.0937V5.90625C3.9375 5.23492 4.20419 4.59109 4.67889 4.11639C5.15359 3.64168 5.79742 3.375 6.46875 3.375V3.375ZM13.7813 7.875C14.4522 7.8756 15.0954 8.14254 15.5697 8.61718C16.0439 9.09182 16.3103 9.73531 16.3103 10.4062V21.0937C16.3204 21.4324 16.2624 21.7695 16.1398 22.0853C16.0172 22.4011 15.8324 22.6891 15.5965 22.9322C15.3605 23.1753 15.0782 23.3685 14.7662 23.5005C14.4542 23.6325 14.1189 23.7005 13.7801 23.7005C13.4414 23.7005 13.1061 23.6325 12.7941 23.5005C12.4821 23.3685 12.1997 23.1753 11.9638 22.9322C11.7278 22.6891 11.5431 22.4011 11.4205 22.0853C11.2979 21.7695 11.2399 21.4324 11.25 21.0937V10.4062C11.25 9.73492 11.5167 9.09109 11.9914 8.61639C12.4661 8.14168 13.1099 7.875 13.7813 7.875V7.875ZM21.0938 12.375C21.7647 12.3756 22.4079 12.6425 22.8822 13.1172C23.3564 13.5918 23.6228 14.2353 23.6228 14.9062V21.0937C23.6329 21.4324 23.5749 21.7695 23.4523 22.0853C23.3297 22.4011 23.1449 22.6891 22.909 22.9322C22.673 23.1753 22.3907 23.3685 22.0787 23.5005C21.7667 23.6325 21.4314 23.7005 21.0926 23.7005C20.7539 23.7005 20.4186 23.6325 20.1066 23.5005C19.7946 23.3685 19.5122 23.1753 19.2763 22.9322C19.0403 22.6891 18.8556 22.4011 18.733 22.0853C18.6104 21.7695 18.5524 21.4324 18.5625 21.0937V14.9062C18.5624 14.5738 18.6277 14.2446 18.7549 13.9374C18.882 13.6302 19.0685 13.3511 19.3036 13.1161C19.5386 12.881 19.8177 12.6945 20.1249 12.5674C20.4321 12.4402 20.7613 12.3749 21.0938 12.375V12.375Z" fill="#AAAAAA"/>
</svg>
