<svg width="32" height="32" viewBox="0 0 32 32" fill="none" xmlns="http://www.w3.org/2000/svg">
<path d="M28 14.4375V26C27.9991 26.3609 27.9012 26.715 27.7164 27.0251C27.5317 27.3352 27.267 27.5899 26.95 27.7625C26.6593 27.9228 26.3319 28.0046 26 28H20C19.7348 28 19.4804 27.8946 19.2929 27.7071C19.1054 27.5196 19 27.2652 19 27V21C19 20.7348 18.8946 20.4804 18.7071 20.2929C18.5196 20.1054 18.2652 20 18 20H14C13.7348 20 13.4804 20.1054 13.2929 20.2929C13.1054 20.4804 13 20.7348 13 21V27C13 27.2652 12.8946 27.5196 12.7071 27.7071C12.5196 27.8946 12.2652 28 12 28H6C5.71628 28.0011 5.43563 27.9414 5.1769 27.825C4.91817 27.7085 4.68736 27.5381 4.5 27.325C4.17487 26.9409 3.99756 26.4533 4 25.95V14.4375C4.00009 14.16 4.05793 13.8856 4.16983 13.6316C4.28173 13.3777 4.44526 13.1498 4.65 12.9625L14.65 3.875C15.0187 3.5377 15.5003 3.35063 16 3.35063C16.4997 3.35063 16.9813 3.5377 17.35 3.875L27.35 12.9625C27.5547 13.1498 27.7183 13.3777 27.8302 13.6316C27.9421 13.8856 27.9999 14.16 28 14.4375Z" fill="#7DC142"/>
</svg>
