<svg width="20" height="20" viewBox="0 0 20 20" fill="none" xmlns="http://www.w3.org/2000/svg">
<path d="M16.7181 15.5813C17.6157 14.5013 18.24 13.2211 18.5381 11.8489C18.8363 10.4766 18.7996 9.05279 18.431 7.69777C18.0625 6.34274 17.3731 5.0964 16.421 4.06418C15.469 3.03196 14.2823 2.24423 12.9614 1.76762C11.6405 1.29102 10.2243 1.13956 8.83247 1.32606C7.44067 1.51256 6.11426 2.03153 4.96545 2.83907C3.81663 3.64662 2.87921 4.71897 2.23249 5.96543C1.58577 7.21188 1.24877 8.59576 1.25 10C1.25047 12.0414 1.96984 14.0174 3.28187 15.5813L3.26937 15.5919C3.31312 15.6444 3.36312 15.6894 3.40812 15.7413C3.46437 15.8056 3.525 15.8663 3.58312 15.9288C3.75812 16.1188 3.93812 16.3013 4.12687 16.4725C4.18437 16.525 4.24375 16.5738 4.30187 16.6238C4.50187 16.7963 4.7075 16.96 4.92062 17.1125C4.94812 17.1313 4.97312 17.1556 5.00062 17.175V17.1675C6.46444 18.1976 8.21069 18.7505 10.0006 18.7505C11.7906 18.7505 13.5368 18.1976 15.0006 17.1675V17.175C15.0281 17.1556 15.0525 17.1313 15.0806 17.1125C15.2931 16.9594 15.4994 16.7963 15.6994 16.6238C15.7575 16.5738 15.8169 16.5244 15.8744 16.4725C16.0631 16.3006 16.2431 16.1188 16.4181 15.9288C16.4762 15.8663 16.5362 15.8056 16.5931 15.7413C16.6375 15.6894 16.6881 15.6444 16.7319 15.5913L16.7181 15.5813ZM10 5.00001C10.5563 5.00001 11.1 5.16496 11.5625 5.474C12.0251 5.78304 12.3855 6.22229 12.5984 6.73621C12.8113 7.25013 12.867 7.81563 12.7585 8.3612C12.6499 8.90677 12.3821 9.40791 11.9887 9.80124C11.5954 10.1946 11.0943 10.4624 10.5487 10.571C10.0031 10.6795 9.43762 10.6238 8.9237 10.4109C8.40979 10.198 7.97053 9.83756 7.66149 9.37505C7.35245 8.91253 7.1875 8.36877 7.1875 7.81251C7.1875 7.06659 7.48382 6.35121 8.01126 5.82377C8.53871 5.29632 9.25408 5.00001 10 5.00001ZM5.00437 15.5813C5.01522 14.7606 5.34872 13.9772 5.93272 13.4006C6.51673 12.824 7.30428 12.5004 8.125 12.5H11.875C12.6957 12.5004 13.4833 12.824 14.0673 13.4006C14.6513 13.9772 14.9848 14.7606 14.9956 15.5813C13.6249 16.8165 11.8452 17.5001 10 17.5001C8.15484 17.5001 6.3751 16.8165 5.00437 15.5813Z" fill="#7DC142"/>
</svg>
