<svg width="14" height="14" viewBox="0 0 14 14" fill="none" xmlns="http://www.w3.org/2000/svg">
<path d="M8.06167 12.8333H5.93833C5.80529 12.8334 5.67624 12.7879 5.57258 12.7045C5.46892 12.6211 5.39689 12.5048 5.36841 12.3748L5.131 11.2758C4.81428 11.1371 4.51397 10.9635 4.23558 10.7584L3.164 11.0997C3.03716 11.1401 2.9003 11.136 2.77615 11.0879C2.652 11.0398 2.54803 10.9507 2.4815 10.8354L1.4175 8.99733C1.35167 8.88191 1.32696 8.74756 1.34741 8.61627C1.36786 8.48498 1.43226 8.36451 1.53008 8.27458L2.36133 7.51625C2.32353 7.17273 2.32353 6.8261 2.36133 6.48258L1.53008 5.726C1.43212 5.63603 1.36763 5.51546 1.34718 5.38404C1.32672 5.25262 1.35152 5.11815 1.4175 5.00266L2.47917 3.16341C2.54569 3.0481 2.64967 2.95901 2.77382 2.91094C2.89797 2.86287 3.03483 2.85872 3.16167 2.89916L4.23325 3.24041C4.37558 3.13541 4.52375 3.03741 4.67658 2.94875C4.82417 2.86591 4.97583 2.79066 5.131 2.72358L5.369 1.62575C5.39733 1.49578 5.46923 1.3794 5.57278 1.2959C5.67633 1.2124 5.80531 1.1668 5.93833 1.16666H8.06167C8.19469 1.1668 8.32366 1.2124 8.42721 1.2959C8.53076 1.3794 8.60266 1.49578 8.631 1.62575L8.87133 2.72416C9.18764 2.86374 9.48787 3.03723 9.76675 3.24158L10.8389 2.90033C10.9657 2.86003 11.1024 2.86426 11.2264 2.91232C11.3505 2.96039 11.4543 3.04939 11.5208 3.16458L12.5825 5.00383C12.7178 5.24125 12.6712 5.54166 12.4699 5.72658L11.6387 6.48491C11.6765 6.82843 11.6765 7.17506 11.6387 7.51858L12.4699 8.27691C12.6712 8.46241 12.7178 8.76225 12.5825 8.99966L11.5208 10.8389C11.4543 10.9542 11.3503 11.0433 11.2262 11.0914C11.102 11.1395 10.9652 11.1436 10.8383 11.1032L9.76675 10.7619C9.48858 10.9669 9.18845 11.1402 8.87191 11.2787L8.631 12.3748C8.60255 12.5047 8.5306 12.6209 8.42706 12.7043C8.32352 12.7877 8.1946 12.8332 8.06167 12.8333ZM6.99767 4.66666C6.37883 4.66666 5.78533 4.9125 5.34775 5.35008C4.91016 5.78767 4.66433 6.38116 4.66433 7C4.66433 7.61884 4.91016 8.21233 5.34775 8.64991C5.78533 9.0875 6.37883 9.33333 6.99767 9.33333C7.6165 9.33333 8.21 9.0875 8.64758 8.64991C9.08517 8.21233 9.331 7.61884 9.331 7C9.331 6.38116 9.08517 5.78767 8.64758 5.35008C8.21 4.9125 7.6165 4.66666 6.99767 4.66666Z" fill="#AAAAAA"/>
</svg>
