<svg width="12" height="12" viewBox="0 0 12 12" fill="none" xmlns="http://www.w3.org/2000/svg">
<path d="M5.7285 7.965L1.746 3.78525C1.67951 3.71551 1.64243 3.62286 1.64243 3.5265C1.64243 3.43015 1.67951 3.3375 1.746 3.26775L1.7505 3.26325C1.78273 3.22933 1.82152 3.20231 1.86452 3.18385C1.90752 3.16539 1.95383 3.15587 2.00062 3.15587C2.04742 3.15587 2.09372 3.16539 2.13672 3.18385C2.17972 3.20231 2.21852 3.22933 2.25075 3.26325L6.00075 7.19925L9.74925 3.26325C9.78148 3.22933 9.82027 3.20231 9.86327 3.18385C9.90627 3.16539 9.95258 3.15587 9.99937 3.15587C10.0462 3.15587 10.0925 3.16539 10.1355 3.18385C10.1785 3.20231 10.2173 3.22933 10.2495 3.26325L10.254 3.26775C10.3205 3.3375 10.3576 3.43015 10.3576 3.5265C10.3576 3.62286 10.3205 3.71551 10.254 3.78525L6.2715 7.965C6.23647 8.00176 6.19435 8.03103 6.14768 8.05102C6.10101 8.07102 6.05077 8.08133 6 8.08133C5.94922 8.08133 5.89898 8.07102 5.85231 8.05102C5.80564 8.03103 5.76352 8.00176 5.7285 7.965Z" fill="white"/>
</svg>
