<svg width="23" height="23" viewBox="0 0 23 23" fill="none" xmlns="http://www.w3.org/2000/svg">
<path d="M10.9796 15.2662L3.3465 7.25505C3.21907 7.12138 3.14799 6.94379 3.14799 6.75911C3.14799 6.57444 3.21907 6.39685 3.3465 6.26318L3.35512 6.25455C3.4169 6.18953 3.49126 6.13775 3.57367 6.10237C3.65609 6.06698 3.74484 6.04874 3.83453 6.04874C3.92422 6.04874 4.01297 6.06698 4.09539 6.10237C4.17781 6.13775 4.25216 6.18953 4.31394 6.25455L11.5014 13.7986L18.6861 6.25455C18.7478 6.18953 18.8222 6.13775 18.9046 6.10237C18.987 6.06698 19.0758 6.04874 19.1655 6.04874C19.2552 6.04874 19.3439 6.06698 19.4263 6.10237C19.5087 6.13775 19.5831 6.18953 19.6449 6.25455L19.6535 6.26318C19.7809 6.39685 19.852 6.57444 19.852 6.75911C19.852 6.94379 19.7809 7.12138 19.6535 7.25505L12.0204 15.2662C11.9532 15.3367 11.8725 15.3928 11.7831 15.4311C11.6936 15.4694 11.5973 15.4892 11.5 15.4892C11.4027 15.4892 11.3064 15.4694 11.2169 15.4311C11.1275 15.3928 11.0468 15.3367 10.9796 15.2662Z" fill="#252525" fill-opacity="0.5"/>
</svg>
